 <svg  version="1.0" xmlns="http://www.w3.org/2000/svg"  width="3000.000000pt" height="600.000000pt" viewBox="0 0 3000.000000 600.000000"  preserveAspectRatio="xMidYMid meet">  <g transform="translate(0.000000,600.000000) scale(0.100000,-0.100000)" fill="#3b9970" stroke="none"> <path d="M1960 5313 c0 -3 11 -21 25 -39 14 -18 25 -39 25 -46 0 -7 9 -35 19 -63 l19 -50 179 -3 178 -2 20 36 c22 41 115 128 157 146 24 11 25 14 10 20 -22 9 -632 10 -632 1z"/> <path d="M2800 5312 c0 -5 17 -17 38 -26 49 -22 118 -88 143 -137 l19 -38 189 -3 c172 -3 191 -5 211 -23 18 -16 21 -28 17 -70 -2 -27 -9 -63 -15 -80 -29 -84 -72 -226 -72 -242 0 -10 -7 -31 -15 -47 -8 -15 -15 -38 -15 -50 0 -12 -6 -30 -14 -41 -7 -11 -19 -47 -26 -80 -15 -74 -33 -110 -63 -127 -12 -7 -71 -15 -132 -18 l-110 -5 76 -38 c81 -40 90 -42 154 -32 52 9 90 -7 115 -47 29 -49 26 -82 -15 -127 -45 -50 -76 -58 -120 -31 -18 11 -36 26 -39 33 -29 57 -45 73 -96 89 -30 10 -58 22 -64 28 -5 5 -19 10 -30 10 -12 0 -34 7 -50 15 -46 24 -290 21 -364 -5 -186 -65 -187 -65 -201 -95 -20 -44 -60 -83 -92 -90 -34 -8 -68 9 -104 53 -23 27 -26 39 -22 70 12 73 98 123 158 91 16 -8 29 -7 54 5 18 9 38 16 44 16 15 0 81 43 81 53 0 4 -54 7 -120 7 -175 0 -188 10 -228 180 -11 47 -29 117 -40 155 -29 100 -72 262 -83 315 -6 25 -22 85 -37 134 -21 70 -31 90 -50 97 -35 13 -50 11 -72 -11 -20 -20 -20 -33 -20 -554 l0 -533 29 -54 c19 -37 41 -61 67 -76 l39 -23 1240 0 c1398 0 1296 -6 1349 77 l29 45 0 563 0 562 -22 37 c-13 20 -40 45 -62 56 -37 19 -62 20 -849 20 -445 0 -810 -4 -810 -8z m1375 -446 c53 -25 88 -58 123 -117 17 -28 22 -53 22 -103 0 -98 -33 -155 -122 -212 -46 -30 -61 -34 -118 -34 -54 0 -72 5 -105 26 -65 43 -85 66 -116 126 -36 72 -36 103 0 182 64 135 194 190 316 132z"/> <path d="M8990 4756 c0 -294 3 -541 6 -550 5 -13 23 -16 96 -16 104 0 128 9 128 49 0 59 29 58 96 -4 29 -27 141 -65 192 -65 33 0 108 21 162 44 34 15 111 95 132 137 54 110 68 160 68 244 0 66 -8 108 -30 160 -5 11 -17 41 -28 66 -26 62 -82 122 -151 161 -53 31 -61 33 -156 33 l-100 -1 -61 -42 c-34 -23 -67 -49 -74 -57 -16 -20 -36 -19 -44 1 -3 9 -6 96 -6 195 l0 179 -115 0 -115 0 0 -534z m548 43 c35 -19 51 -38 78 -91 44 -87 44 -128 1 -221 -30 -64 -39 -75 -85 -99 -63 -34 -133 -37 -195 -9 -47 21 -63 37 -95 94 -18 30 -22 54 -22 118 0 130 52 207 158 234 55 14 103 6 160 -26z"/> <path d="M5086 5222 c-11 -18 -5 -1006 6 -1019 13 -16 184 -18 193 -3 4 6 6 140 5 298 0 233 2 291 13 307 14 18 16 18 39 3 16 -11 30 -34 38 -65 7 -26 21 -66 31 -88 10 -22 32 -80 50 -130 18 -49 36 -95 40 -100 4 -6 13 -31 18 -56 6 -25 23 -73 38 -107 30 -69 37 -72 139 -68 61 3 84 10 84 26 0 5 11 34 25 64 14 30 25 59 25 65 0 21 43 134 66 174 13 23 24 54 24 69 0 37 74 194 96 202 9 4 22 2 27 -3 6 -6 9 -120 8 -291 -2 -204 1 -286 10 -296 16 -19 182 -20 198 0 8 9 10 153 9 517 l-3 504 -132 3 -131 3 -25 -53 c-13 -29 -30 -71 -37 -93 -7 -22 -22 -58 -32 -79 -11 -22 -27 -62 -35 -90 -8 -28 -23 -64 -33 -81 -10 -16 -28 -61 -41 -100 -13 -38 -31 -84 -41 -101 -10 -17 -25 -54 -33 -82 -15 -51 -41 -77 -62 -64 -5 4 -20 33 -31 65 -12 31 -33 80 -47 107 -14 27 -25 56 -25 64 0 8 -13 41 -29 73 -16 33 -33 72 -37 89 -4 16 -19 56 -34 89 -16 33 -37 87 -49 119 -11 32 -29 75 -39 95 l-19 36 -131 3 c-72 1 -133 -1 -136 -6z"/> <path d="M2650 5203 c-72 -13 -159 -122 -160 -200 -1 -82 73 -179 159 -207 48 -15 55 -15 107 0 76 22 123 71 148 154 14 46 16 64 7 73 -6 6 -11 19 -11 29 0 36 -41 98 -80 123 -39 25 -118 38 -170 28z m100 -68 c13 -14 28 -25 33 -25 10 0 100 -78 106 -93 5 -13 -40 -57 -58 -57 -9 0 -25 7 -35 15 -32 24 -36 18 -36 -47 0 -68 -17 -98 -56 -98 -35 0 -54 36 -54 103 0 32 -3 57 -7 55 -5 -2 -20 -10 -35 -17 -24 -12 -31 -12 -53 3 -45 30 -34 57 53 124 42 33 86 61 98 61 11 1 31 -10 44 -24z"/> <path d="M6665 5011 c-40 -7 -116 -52 -168 -100 -34 -30 -67 -94 -90 -171 -45 -156 -46 -133 4 -301 38 -129 125 -218 246 -254 93 -27 212 -5 277 53 20 17 45 32 56 32 22 0 40 -28 32 -49 -2 -7 1 -17 8 -21 21 -13 190 -12 206 1 12 9 14 76 14 394 0 211 -3 390 -6 399 -5 13 -25 16 -110 16 l-104 0 -6 -40 c-9 -57 -24 -65 -65 -35 -87 62 -113 74 -184 79 -38 2 -88 1 -110 -3z m263 -208 c15 -11 42 -39 60 -62 31 -42 32 -45 32 -146 0 -102 -1 -104 -33 -147 -18 -23 -51 -53 -72 -65 -94 -53 -230 -8 -282 92 -18 34 -20 194 -4 237 15 40 98 106 144 116 55 10 122 0 155 -25z"/> <path d="M7850 5011 c-32 -6 -91 -37 -146 -77 -19 -13 -23 -13 -38 1 -9 9 -16 27 -16 40 0 12 -7 26 -16 29 -30 12 -191 7 -201 -6 -15 -19 -16 -777 -2 -795 12 -14 171 -19 203 -7 14 5 16 38 16 263 l0 258 28 36 c40 52 89 77 153 77 66 0 112 -22 153 -73 l30 -37 4 -260 c5 -301 -8 -273 127 -268 l80 3 5 240 c6 243 14 296 52 342 42 50 171 70 234 35 43 -23 80 -69 93 -117 6 -24 11 -132 11 -267 0 -260 -10 -237 105 -237 116 0 105 -26 105 264 0 329 -10 388 -80 456 -27 25 -70 58 -96 73 -44 25 -59 27 -147 27 -70 0 -104 -4 -115 -14 -10 -7 -38 -26 -65 -41 -26 -15 -57 -40 -69 -56 -29 -40 -50 -38 -95 8 -61 62 -138 99 -213 105 -36 3 -81 2 -100 -2z"/> <path d="M10246 5013 c-22 -2 -51 -12 -65 -21 -15 -10 -43 -26 -64 -37 -178 -90 -243 -385 -130 -590 49 -88 122 -140 254 -180 97 -30 238 -7 333 53 45 29 146 147 146 171 0 7 -41 11 -118 11 -113 0 -120 -1 -142 -25 -12 -13 -45 -32 -72 -41 -43 -14 -56 -14 -96 -3 -77 21 -141 88 -141 149 -1 55 -3 54 271 52 139 -1 270 1 292 4 l39 6 -6 69 c-3 38 -10 84 -16 102 -6 17 -13 43 -15 57 -10 49 -89 133 -167 177 -69 39 -80 42 -169 46 -52 3 -113 3 -134 0z m159 -174 c53 -13 125 -84 125 -123 0 -52 -17 -57 -197 -54 -139 3 -167 6 -176 19 -16 25 -1 63 41 106 56 58 120 74 207 52z"/> <path d="M11315 5011 c-35 -6 -79 -28 -180 -91 -31 -19 -46 -6 -54 47 l-6 38 -103 3 -102 3 -1 -168 c-2 -278 2 -637 7 -645 3 -4 49 -7 102 -5 l97 2 5 250 c5 232 7 253 27 291 12 22 39 52 60 67 34 23 49 27 111 27 89 0 131 -23 165 -90 21 -42 22 -60 25 -290 2 -174 7 -247 15 -252 7 -4 54 -8 104 -8 91 0 93 1 99 25 3 14 4 139 2 278 -4 208 -7 259 -21 291 -9 21 -17 46 -17 55 -1 31 -68 108 -121 138 -58 33 -143 46 -214 34z"/> <path d="M2080 5005 c0 -3 10 -47 21 -98 12 -50 25 -110 29 -132 4 -22 13 -53 18 -70 10 -29 20 -64 58 -202 14 -48 22 -63 38 -65 45 -6 886 3 886 10 0 4 -91 7 -202 7 l-203 0 0 45 0 45 60 8 c33 4 120 6 194 4 126 -3 135 -5 153 -27 10 -13 17 -29 14 -37 -3 -7 -1 -13 4 -13 6 0 10 11 10 25 0 13 6 39 14 57 8 18 22 60 31 93 9 33 23 78 31 100 8 23 14 48 14 58 0 9 9 34 20 54 11 21 21 61 22 88 l3 50 -132 3 -132 3 -7 -28 c-10 -44 -33 -113 -47 -138 -23 -44 -88 -105 -137 -130 -67 -34 -199 -36 -263 -4 -110 57 -163 131 -192 272 l-5 27 -150 0 c-83 0 -150 -2 -150 -5z m616 -490 c7 -40 -7 -65 -38 -65 -35 0 -58 19 -58 48 0 37 17 52 57 52 29 0 33 -4 39 -35z"/> </g> </svg> 